<?xml version="1.0" encoding="utf-8"?>
<!-- Generator: Adobe Illustrator 22.1.0, SVG Export Plug-In . SVG Version: 6.00 Build 0)  -->
<svg version="1.1" id="Capa_1" xmlns="http://www.w3.org/2000/svg" xmlns:xlink="http://www.w3.org/1999/xlink" x="0px" y="0px"
	 viewBox="0 0 612 553" style="enable-background:new 0 0 612 553;" xml:space="preserve">
<g>
	<path d="M111.3,150.2c162.4,0,324.5,0,487.4,0c0,1.9,0,3.7,0,5.4c0,124.8,0,249.6,0.1,374.4c0,4.7-1.4,5.8-5.9,5.8
		c-158.8-0.1-317.6-0.1-476.4-0.1c-1.6,0-3.3,0-5.3,0C111.3,407.1,111.3,278.9,111.3,150.2z M565.1,184.3c-140.2,0-280.1,0-420,0
		c0,106.1,0,211.8,0,317.7c140.2,0,280,0,420,0C565.1,395.8,565.1,290.1,565.1,184.3z"/>
	<path d="M491.6,112.6c-77.4,0-153.6,0-229.8,0c-0.2-0.3-0.4-0.6-0.6-0.9c55-34.3,110-68.6,165.6-103.3
		C448.3,43,469.7,77.4,491.6,112.6z"/>
	<path d="M72.4,360.6c-19.6-31.3-39.2-62.5-59.1-94.3c20-12.5,39.7-24.8,60-37.5c0,44.2,0,87.8,0,131.5
		C72.9,360.4,72.6,360.5,72.4,360.6z"/>
	<path d="M183.3,455c-1.8-18.6,2.4-34.1,17.4-45.4c7.7-5.8,16.6-8.4,26.2-8.4c22.3-0.1,44.7-0.2,67,0.1c4.6,0.1,7.6-1.1,10.2-5.1
		c4.8-7.6,10.1-14.9,15.3-22.2c5.2-7.3,12-12.5,21.3-11.7c4.5,0.4,9.1,2.8,13,5.2c4,2.5,7.2,6.4,10.9,9.5
		c10.8,9.1,20.2,8.3,28.5-3.1c6.4-8.7,12-18,17.7-27.2c8.3-13.4,16.3-27.1,24.7-40.4c4.8-7.6,9.8-7.1,14.4,1.2
		c24.4,43.7,48.9,87.4,73.2,131.1c1.8,3.3,3.3,6.8,4.5,10.4c1.2,3.5-0.9,5.3-4.2,5.7c-1.5,0.2-3,0.1-4.5,0.1
		c-110.2,0-220.3,0-330.5,0C186.8,455,185.2,455,183.3,455z"/>
	<path d="M321.9,278.6c0,25.3-20.8,46.2-46,46.1c-25.3,0-45.9-20.8-45.9-46.2c0-25.8,20.6-46,47-46.1
		C302.1,232.3,321.9,252.6,321.9,278.6z"/>
</g>
</svg>
